<mxfile host="app.diagrams.net" modified="2023-04-06T12:50:36.108Z" agent="Mozilla/5.0 (Windows NT 10.0; Win64; x64; rv:109.0) Gecko/20100101 Firefox/111.0" etag="zOubq6NIR4IqIh2RygT3" version="21.1.4" type="device">
  <diagram name="Page-1" id="2YBvvXClWsGukQMizWep">
    <mxGraphModel dx="1235" dy="618" grid="1" gridSize="10" guides="1" tooltips="1" connect="1" arrows="1" fold="1" page="1" pageScale="1" pageWidth="850" pageHeight="1100" math="0" shadow="0">
      <root>
        <mxCell id="0" />
        <mxCell id="1" parent="0" />
        <mxCell id="aM9ryv3xv72pqoxQDRHE-1" value="Начална страница" style="shape=umlLifeline;perimeter=lifelinePerimeter;whiteSpace=wrap;html=1;container=0;dropTarget=0;collapsible=0;recursiveResize=0;outlineConnect=0;portConstraint=eastwest;newEdgeStyle={&quot;edgeStyle&quot;:&quot;elbowEdgeStyle&quot;,&quot;elbow&quot;:&quot;vertical&quot;,&quot;curved&quot;:0,&quot;rounded&quot;:0};" parent="1" vertex="1">
          <mxGeometry x="40" y="40" width="100" height="920" as="geometry" />
        </mxCell>
        <mxCell id="aM9ryv3xv72pqoxQDRHE-2" value="" style="html=1;points=[];perimeter=orthogonalPerimeter;outlineConnect=0;targetShapes=umlLifeline;portConstraint=eastwest;newEdgeStyle={&quot;edgeStyle&quot;:&quot;elbowEdgeStyle&quot;,&quot;elbow&quot;:&quot;vertical&quot;,&quot;curved&quot;:0,&quot;rounded&quot;:0};" parent="aM9ryv3xv72pqoxQDRHE-1" vertex="1">
          <mxGeometry x="45" y="70" width="10" height="770" as="geometry" />
        </mxCell>
        <mxCell id="aM9ryv3xv72pqoxQDRHE-3" value="Начало" style="html=1;verticalAlign=bottom;startArrow=oval;endArrow=block;startSize=8;edgeStyle=elbowEdgeStyle;elbow=vertical;curved=0;rounded=0;" parent="aM9ryv3xv72pqoxQDRHE-1" target="aM9ryv3xv72pqoxQDRHE-2" edge="1">
          <mxGeometry relative="1" as="geometry">
            <mxPoint x="-15" y="70" as="sourcePoint" />
          </mxGeometry>
        </mxCell>
        <mxCell id="aM9ryv3xv72pqoxQDRHE-5" value="Страница за въвеждане на участници" style="shape=umlLifeline;perimeter=lifelinePerimeter;whiteSpace=wrap;html=1;container=0;dropTarget=0;collapsible=0;recursiveResize=0;outlineConnect=0;portConstraint=eastwest;newEdgeStyle={&quot;edgeStyle&quot;:&quot;elbowEdgeStyle&quot;,&quot;elbow&quot;:&quot;vertical&quot;,&quot;curved&quot;:0,&quot;rounded&quot;:0};" parent="1" vertex="1">
          <mxGeometry x="220" y="40" width="100" height="920" as="geometry" />
        </mxCell>
        <mxCell id="O8Y2yQ0MNWPU1Q-F4xDI-9" value="" style="html=1;points=[];perimeter=orthogonalPerimeter;outlineConnect=0;targetShapes=umlLifeline;portConstraint=eastwest;newEdgeStyle={&quot;edgeStyle&quot;:&quot;elbowEdgeStyle&quot;,&quot;elbow&quot;:&quot;vertical&quot;,&quot;curved&quot;:0,&quot;rounded&quot;:0};" parent="aM9ryv3xv72pqoxQDRHE-5" vertex="1">
          <mxGeometry x="45" y="150" width="10" height="660" as="geometry" />
        </mxCell>
        <mxCell id="O8Y2yQ0MNWPU1Q-F4xDI-17" value="" style="endArrow=classic;html=1;rounded=0;" parent="aM9ryv3xv72pqoxQDRHE-5" target="O8Y2yQ0MNWPU1Q-F4xDI-9" edge="1" source="O8Y2yQ0MNWPU1Q-F4xDI-9">
          <mxGeometry width="50" height="50" relative="1" as="geometry">
            <mxPoint x="60" y="260" as="sourcePoint" />
            <mxPoint x="170" y="110" as="targetPoint" />
            <Array as="points">
              <mxPoint x="70" y="260" />
              <mxPoint x="130" y="260" />
              <mxPoint x="130" y="230" />
              <mxPoint x="130" y="170" />
            </Array>
          </mxGeometry>
        </mxCell>
        <mxCell id="O8Y2yQ0MNWPU1Q-F4xDI-19" value="&lt;div&gt;Добави нов&lt;/div&gt;" style="edgeLabel;html=1;align=center;verticalAlign=middle;resizable=0;points=[];" parent="O8Y2yQ0MNWPU1Q-F4xDI-17" vertex="1" connectable="0">
          <mxGeometry x="-0.0224" relative="1" as="geometry">
            <mxPoint x="-40" y="35" as="offset" />
          </mxGeometry>
        </mxCell>
        <mxCell id="O8Y2yQ0MNWPU1Q-F4xDI-1" value="Страница за въвеждане на задача" style="shape=umlLifeline;perimeter=lifelinePerimeter;whiteSpace=wrap;html=1;container=0;dropTarget=0;collapsible=0;recursiveResize=0;outlineConnect=0;portConstraint=eastwest;newEdgeStyle={&quot;edgeStyle&quot;:&quot;elbowEdgeStyle&quot;,&quot;elbow&quot;:&quot;vertical&quot;,&quot;curved&quot;:0,&quot;rounded&quot;:0};" parent="1" vertex="1">
          <mxGeometry x="410" y="40" width="100" height="920" as="geometry" />
        </mxCell>
        <mxCell id="O8Y2yQ0MNWPU1Q-F4xDI-3" value="&lt;div&gt;Страница за оценяване на задача&lt;/div&gt;" style="shape=umlLifeline;perimeter=lifelinePerimeter;whiteSpace=wrap;html=1;container=0;dropTarget=0;collapsible=0;recursiveResize=0;outlineConnect=0;portConstraint=eastwest;newEdgeStyle={&quot;edgeStyle&quot;:&quot;elbowEdgeStyle&quot;,&quot;elbow&quot;:&quot;vertical&quot;,&quot;curved&quot;:0,&quot;rounded&quot;:0};" parent="1" vertex="1">
          <mxGeometry x="600" y="40" width="100" height="920" as="geometry" />
        </mxCell>
        <mxCell id="O8Y2yQ0MNWPU1Q-F4xDI-5" value="Въвеждане име на проект и име на скръм мастър" style="rounded=0;whiteSpace=wrap;html=1;" parent="1" vertex="1">
          <mxGeometry x="30" y="120" width="120" height="60" as="geometry" />
        </mxCell>
        <mxCell id="O8Y2yQ0MNWPU1Q-F4xDI-10" value="" style="edgeStyle=elbowEdgeStyle;rounded=0;orthogonalLoop=1;jettySize=auto;html=1;elbow=vertical;curved=0;" parent="1" edge="1">
          <mxGeometry relative="1" as="geometry">
            <mxPoint x="95" y="199" as="sourcePoint" />
            <mxPoint x="265" y="199" as="targetPoint" />
            <Array as="points">
              <mxPoint x="180" y="199" />
              <mxPoint x="250" y="189" />
              <mxPoint x="190" y="229" />
            </Array>
          </mxGeometry>
        </mxCell>
        <mxCell id="O8Y2yQ0MNWPU1Q-F4xDI-13" value="Напред" style="edgeLabel;html=1;align=center;verticalAlign=middle;resizable=0;points=[];" parent="O8Y2yQ0MNWPU1Q-F4xDI-10" vertex="1" connectable="0">
          <mxGeometry x="0.2071" y="-2" relative="1" as="geometry">
            <mxPoint x="-67" y="-12" as="offset" />
          </mxGeometry>
        </mxCell>
        <mxCell id="O8Y2yQ0MNWPU1Q-F4xDI-14" value="Добавяне на участник" style="rounded=0;whiteSpace=wrap;html=1;" parent="1" vertex="1">
          <mxGeometry x="210" y="220" width="120" height="60" as="geometry" />
        </mxCell>
        <mxCell id="O8Y2yQ0MNWPU1Q-F4xDI-26" value="" style="edgeStyle=elbowEdgeStyle;rounded=0;orthogonalLoop=1;jettySize=auto;html=1;elbow=vertical;curved=0;" parent="1" source="O8Y2yQ0MNWPU1Q-F4xDI-20" target="O8Y2yQ0MNWPU1Q-F4xDI-25" edge="1">
          <mxGeometry relative="1" as="geometry">
            <Array as="points">
              <mxPoint x="550" y="430" />
            </Array>
          </mxGeometry>
        </mxCell>
        <mxCell id="O8Y2yQ0MNWPU1Q-F4xDI-27" value="Напред" style="edgeLabel;html=1;align=center;verticalAlign=middle;resizable=0;points=[];" parent="O8Y2yQ0MNWPU1Q-F4xDI-26" vertex="1" connectable="0">
          <mxGeometry x="0.1444" y="2" relative="1" as="geometry">
            <mxPoint x="-78" y="-8" as="offset" />
          </mxGeometry>
        </mxCell>
        <mxCell id="O8Y2yQ0MNWPU1Q-F4xDI-20" value="" style="html=1;points=[];perimeter=orthogonalPerimeter;outlineConnect=0;targetShapes=umlLifeline;portConstraint=eastwest;newEdgeStyle={&quot;edgeStyle&quot;:&quot;elbowEdgeStyle&quot;,&quot;elbow&quot;:&quot;vertical&quot;,&quot;curved&quot;:0,&quot;rounded&quot;:0};" parent="1" vertex="1">
          <mxGeometry x="455" y="310" width="10" height="510" as="geometry" />
        </mxCell>
        <mxCell id="O8Y2yQ0MNWPU1Q-F4xDI-21" value="" style="edgeStyle=elbowEdgeStyle;rounded=0;orthogonalLoop=1;jettySize=auto;html=1;elbow=vertical;curved=0;" parent="1" source="O8Y2yQ0MNWPU1Q-F4xDI-9" target="O8Y2yQ0MNWPU1Q-F4xDI-20" edge="1">
          <mxGeometry relative="1" as="geometry">
            <Array as="points">
              <mxPoint x="370" y="330" />
            </Array>
          </mxGeometry>
        </mxCell>
        <mxCell id="O8Y2yQ0MNWPU1Q-F4xDI-23" value="Напред" style="edgeLabel;html=1;align=center;verticalAlign=middle;resizable=0;points=[];" parent="O8Y2yQ0MNWPU1Q-F4xDI-21" vertex="1" connectable="0">
          <mxGeometry x="0.5756" y="-2" relative="1" as="geometry">
            <mxPoint x="-107" y="-12" as="offset" />
          </mxGeometry>
        </mxCell>
        <mxCell id="O8Y2yQ0MNWPU1Q-F4xDI-24" value="Създаване на нова задача" style="rounded=0;whiteSpace=wrap;html=1;" parent="1" vertex="1">
          <mxGeometry x="400" y="350" width="120" height="60" as="geometry" />
        </mxCell>
        <mxCell id="O8Y2yQ0MNWPU1Q-F4xDI-29" value="" style="endArrow=classic;html=1;rounded=0;" parent="1" target="O8Y2yQ0MNWPU1Q-F4xDI-25" edge="1">
          <mxGeometry width="50" height="50" relative="1" as="geometry">
            <mxPoint x="650" y="540" as="sourcePoint" />
            <mxPoint x="730" y="420" as="targetPoint" />
            <Array as="points">
              <mxPoint x="700" y="540" />
              <mxPoint x="760" y="540" />
              <mxPoint x="760" y="440" />
              <mxPoint x="730" y="440" />
              <mxPoint x="690" y="440" />
            </Array>
          </mxGeometry>
        </mxCell>
        <mxCell id="O8Y2yQ0MNWPU1Q-F4xDI-30" value="Ново гласуване" style="edgeLabel;html=1;align=center;verticalAlign=middle;resizable=0;points=[];" parent="O8Y2yQ0MNWPU1Q-F4xDI-29" vertex="1" connectable="0">
          <mxGeometry x="-0.7271" y="-1" relative="1" as="geometry">
            <mxPoint x="8" y="-9" as="offset" />
          </mxGeometry>
        </mxCell>
        <mxCell id="O8Y2yQ0MNWPU1Q-F4xDI-25" value="" style="html=1;points=[];perimeter=orthogonalPerimeter;outlineConnect=0;targetShapes=umlLifeline;portConstraint=eastwest;newEdgeStyle={&quot;edgeStyle&quot;:&quot;elbowEdgeStyle&quot;,&quot;elbow&quot;:&quot;vertical&quot;,&quot;curved&quot;:0,&quot;rounded&quot;:0};" parent="1" vertex="1">
          <mxGeometry x="645" y="410" width="10" height="390" as="geometry" />
        </mxCell>
        <mxCell id="O8Y2yQ0MNWPU1Q-F4xDI-28" value="Оценяване на задачата" style="rounded=0;whiteSpace=wrap;html=1;" parent="1" vertex="1">
          <mxGeometry x="590" y="460" width="120" height="60" as="geometry" />
        </mxCell>
        <mxCell id="O8Y2yQ0MNWPU1Q-F4xDI-31" value="" style="endArrow=classic;html=1;rounded=0;" parent="1" source="O8Y2yQ0MNWPU1Q-F4xDI-25" target="O8Y2yQ0MNWPU1Q-F4xDI-40" edge="1">
          <mxGeometry width="50" height="50" relative="1" as="geometry">
            <mxPoint x="350" y="550" as="sourcePoint" />
            <mxPoint x="830" y="620" as="targetPoint" />
            <Array as="points">
              <mxPoint x="740" y="640" />
            </Array>
          </mxGeometry>
        </mxCell>
        <mxCell id="O8Y2yQ0MNWPU1Q-F4xDI-55" value="Прозорец за край" style="edgeLabel;html=1;align=center;verticalAlign=middle;resizable=0;points=[];" parent="O8Y2yQ0MNWPU1Q-F4xDI-31" vertex="1" connectable="0">
          <mxGeometry x="-0.4556" relative="1" as="geometry">
            <mxPoint x="6" y="-10" as="offset" />
          </mxGeometry>
        </mxCell>
        <mxCell id="O8Y2yQ0MNWPU1Q-F4xDI-37" value="&lt;div&gt;Записване на данните на&lt;/div&gt;&lt;div&gt;задачата&lt;/div&gt;" style="rounded=0;whiteSpace=wrap;html=1;" parent="1" vertex="1">
          <mxGeometry x="590" y="550" width="120" height="60" as="geometry" />
        </mxCell>
        <mxCell id="O8Y2yQ0MNWPU1Q-F4xDI-39" value="Страница за запитване за изход" style="shape=umlLifeline;perimeter=lifelinePerimeter;whiteSpace=wrap;html=1;container=0;dropTarget=0;collapsible=0;recursiveResize=0;outlineConnect=0;portConstraint=eastwest;newEdgeStyle={&quot;edgeStyle&quot;:&quot;elbowEdgeStyle&quot;,&quot;elbow&quot;:&quot;vertical&quot;,&quot;curved&quot;:0,&quot;rounded&quot;:0};" parent="1" vertex="1">
          <mxGeometry x="790" y="40" width="100" height="920" as="geometry" />
        </mxCell>
        <mxCell id="O8Y2yQ0MNWPU1Q-F4xDI-40" value="" style="html=1;points=[];perimeter=orthogonalPerimeter;outlineConnect=0;targetShapes=umlLifeline;portConstraint=eastwest;newEdgeStyle={&quot;edgeStyle&quot;:&quot;elbowEdgeStyle&quot;,&quot;elbow&quot;:&quot;vertical&quot;,&quot;curved&quot;:0,&quot;rounded&quot;:0};" parent="O8Y2yQ0MNWPU1Q-F4xDI-39" vertex="1">
          <mxGeometry x="45" y="560" width="10" height="190" as="geometry" />
        </mxCell>
        <mxCell id="O8Y2yQ0MNWPU1Q-F4xDI-45" value="" style="endArrow=classic;html=1;rounded=0;" parent="1" source="O8Y2yQ0MNWPU1Q-F4xDI-40" target="O8Y2yQ0MNWPU1Q-F4xDI-25" edge="1">
          <mxGeometry width="50" height="50" relative="1" as="geometry">
            <mxPoint x="570" y="640" as="sourcePoint" />
            <mxPoint x="620" y="590" as="targetPoint" />
            <Array as="points">
              <mxPoint x="770" y="720" />
            </Array>
          </mxGeometry>
        </mxCell>
        <mxCell id="O8Y2yQ0MNWPU1Q-F4xDI-56" value="Нова задача" style="edgeLabel;html=1;align=center;verticalAlign=middle;resizable=0;points=[];" parent="O8Y2yQ0MNWPU1Q-F4xDI-45" vertex="1" connectable="0">
          <mxGeometry x="-0.0333" relative="1" as="geometry">
            <mxPoint x="-8" y="-10" as="offset" />
          </mxGeometry>
        </mxCell>
        <mxCell id="O8Y2yQ0MNWPU1Q-F4xDI-46" value="" style="endArrow=classic;html=1;rounded=0;" parent="1" source="O8Y2yQ0MNWPU1Q-F4xDI-25" target="O8Y2yQ0MNWPU1Q-F4xDI-20" edge="1">
          <mxGeometry width="50" height="50" relative="1" as="geometry">
            <mxPoint x="570" y="640" as="sourcePoint" />
            <mxPoint x="620" y="590" as="targetPoint" />
            <Array as="points">
              <mxPoint x="550" y="740" />
            </Array>
          </mxGeometry>
        </mxCell>
        <mxCell id="8F0MhI7d2BhW70WeMo5a-2" value="Нова задача" style="edgeLabel;html=1;align=center;verticalAlign=middle;resizable=0;points=[];" vertex="1" connectable="0" parent="O8Y2yQ0MNWPU1Q-F4xDI-46">
          <mxGeometry x="-0.2549" relative="1" as="geometry">
            <mxPoint x="-28" y="-10" as="offset" />
          </mxGeometry>
        </mxCell>
        <mxCell id="O8Y2yQ0MNWPU1Q-F4xDI-47" value="" style="endArrow=classic;html=1;rounded=0;" parent="1" source="O8Y2yQ0MNWPU1Q-F4xDI-20" target="O8Y2yQ0MNWPU1Q-F4xDI-20" edge="1">
          <mxGeometry width="50" height="50" relative="1" as="geometry">
            <mxPoint x="570" y="580" as="sourcePoint" />
            <mxPoint x="620" y="530" as="targetPoint" />
            <Array as="points">
              <mxPoint x="430" y="750" />
              <mxPoint x="380" y="750" />
              <mxPoint x="380" y="340" />
            </Array>
          </mxGeometry>
        </mxCell>
        <mxCell id="8F0MhI7d2BhW70WeMo5a-4" value="Нова задача" style="edgeLabel;html=1;align=center;verticalAlign=middle;resizable=0;points=[];" vertex="1" connectable="0" parent="O8Y2yQ0MNWPU1Q-F4xDI-47">
          <mxGeometry x="-0.5943" y="-3" relative="1" as="geometry">
            <mxPoint x="34" y="28" as="offset" />
          </mxGeometry>
        </mxCell>
        <mxCell id="O8Y2yQ0MNWPU1Q-F4xDI-49" value="" style="endArrow=classic;html=1;rounded=0;" parent="1" source="O8Y2yQ0MNWPU1Q-F4xDI-20" target="O8Y2yQ0MNWPU1Q-F4xDI-9" edge="1">
          <mxGeometry width="50" height="50" relative="1" as="geometry">
            <mxPoint x="310" y="700" as="sourcePoint" />
            <mxPoint x="280" y="790" as="targetPoint" />
            <Array as="points">
              <mxPoint x="370" y="810" />
            </Array>
          </mxGeometry>
        </mxCell>
        <mxCell id="8F0MhI7d2BhW70WeMo5a-5" value="Изход" style="edgeLabel;html=1;align=center;verticalAlign=middle;resizable=0;points=[];" vertex="1" connectable="0" parent="O8Y2yQ0MNWPU1Q-F4xDI-49">
          <mxGeometry x="0.0328" y="-1" relative="1" as="geometry">
            <mxPoint x="1" y="-9" as="offset" />
          </mxGeometry>
        </mxCell>
        <mxCell id="O8Y2yQ0MNWPU1Q-F4xDI-51" value="" style="endArrow=classic;html=1;rounded=0;" parent="1" source="O8Y2yQ0MNWPU1Q-F4xDI-25" target="O8Y2yQ0MNWPU1Q-F4xDI-20" edge="1">
          <mxGeometry width="50" height="50" relative="1" as="geometry">
            <mxPoint x="470" y="700" as="sourcePoint" />
            <mxPoint x="520" y="650" as="targetPoint" />
            <Array as="points">
              <mxPoint x="560" y="780" />
            </Array>
          </mxGeometry>
        </mxCell>
        <mxCell id="8F0MhI7d2BhW70WeMo5a-3" value="Изход" style="edgeLabel;html=1;align=center;verticalAlign=middle;resizable=0;points=[];" vertex="1" connectable="0" parent="O8Y2yQ0MNWPU1Q-F4xDI-51">
          <mxGeometry x="0.1242" relative="1" as="geometry">
            <mxPoint y="-10" as="offset" />
          </mxGeometry>
        </mxCell>
        <mxCell id="O8Y2yQ0MNWPU1Q-F4xDI-52" value="" style="endArrow=classic;html=1;rounded=0;" parent="1" source="O8Y2yQ0MNWPU1Q-F4xDI-40" target="O8Y2yQ0MNWPU1Q-F4xDI-25" edge="1">
          <mxGeometry width="50" height="50" relative="1" as="geometry">
            <mxPoint x="470" y="700" as="sourcePoint" />
            <mxPoint x="520" y="650" as="targetPoint" />
            <Array as="points">
              <mxPoint x="750" y="760" />
            </Array>
          </mxGeometry>
        </mxCell>
        <mxCell id="8F0MhI7d2BhW70WeMo5a-1" value="Изход" style="edgeLabel;html=1;align=center;verticalAlign=middle;resizable=0;points=[];" vertex="1" connectable="0" parent="O8Y2yQ0MNWPU1Q-F4xDI-52">
          <mxGeometry x="-0.183" y="6" relative="1" as="geometry">
            <mxPoint x="-21" y="-16" as="offset" />
          </mxGeometry>
        </mxCell>
        <mxCell id="O8Y2yQ0MNWPU1Q-F4xDI-53" value="&lt;div&gt;Изход или&lt;/div&gt;&lt;div&gt;&amp;nbsp;нова задача&lt;/div&gt;" style="rounded=0;whiteSpace=wrap;html=1;" parent="1" vertex="1">
          <mxGeometry x="780" y="650" width="120" height="60" as="geometry" />
        </mxCell>
        <mxCell id="8F0MhI7d2BhW70WeMo5a-6" value="" style="endArrow=classic;html=1;rounded=0;" edge="1" parent="1" source="O8Y2yQ0MNWPU1Q-F4xDI-9" target="aM9ryv3xv72pqoxQDRHE-2">
          <mxGeometry width="50" height="50" relative="1" as="geometry">
            <mxPoint x="240" y="840" as="sourcePoint" />
            <mxPoint x="170" y="840" as="targetPoint" />
            <Array as="points">
              <mxPoint x="180" y="840" />
            </Array>
          </mxGeometry>
        </mxCell>
        <mxCell id="8F0MhI7d2BhW70WeMo5a-7" value="Изход" style="edgeLabel;html=1;align=center;verticalAlign=middle;resizable=0;points=[];" vertex="1" connectable="0" parent="8F0MhI7d2BhW70WeMo5a-6">
          <mxGeometry x="0.2651" y="3" relative="1" as="geometry">
            <mxPoint x="11" y="-13" as="offset" />
          </mxGeometry>
        </mxCell>
        <mxCell id="8F0MhI7d2BhW70WeMo5a-8" value="" style="html=1;verticalAlign=bottom;startArrow=oval;endArrow=block;startSize=8;edgeStyle=elbowEdgeStyle;elbow=vertical;curved=0;rounded=0;" edge="1" parent="1">
          <mxGeometry x="0.1429" y="120" relative="1" as="geometry">
            <mxPoint x="90" y="880" as="sourcePoint" />
            <mxPoint x="20" y="880" as="targetPoint" />
            <Array as="points">
              <mxPoint x="60" y="880" />
            </Array>
            <mxPoint as="offset" />
          </mxGeometry>
        </mxCell>
        <mxCell id="8F0MhI7d2BhW70WeMo5a-9" value="Край" style="edgeLabel;html=1;align=center;verticalAlign=middle;resizable=0;points=[];" vertex="1" connectable="0" parent="8F0MhI7d2BhW70WeMo5a-8">
          <mxGeometry x="0.2857" y="2" relative="1" as="geometry">
            <mxPoint x="5" y="-12" as="offset" />
          </mxGeometry>
        </mxCell>
      </root>
    </mxGraphModel>
  </diagram>
</mxfile>
